<mxfile host="app.diagrams.net" agent="Mozilla/5.0 (Macintosh; Intel Mac OS X 10_15_7) AppleWebKit/537.36 (KHTML, like Gecko) Chrome/132.0.0.0 Safari/537.36" version="26.0.11">
  <diagram name="Page-1" id="KwvRpRV-MRpYwTFhF14f">
    <mxGraphModel dx="1493" dy="843" grid="1" gridSize="10" guides="1" tooltips="1" connect="1" arrows="1" fold="1" page="1" pageScale="1" pageWidth="850" pageHeight="1100" math="0" shadow="0">
      <root>
        <mxCell id="0" />
        <mxCell id="1" parent="0" />
        <mxCell id="sW9w5M-bmw9onrAfpxuU-55" style="edgeStyle=orthogonalEdgeStyle;rounded=0;orthogonalLoop=1;jettySize=auto;html=1;exitX=0.75;exitY=1;exitDx=0;exitDy=0;strokeWidth=2;fillColor=#d5e8d4;strokeColor=#82b366;" edge="1" parent="1" source="sW9w5M-bmw9onrAfpxuU-23">
          <mxGeometry relative="1" as="geometry">
            <mxPoint x="440" y="240" as="targetPoint" />
          </mxGeometry>
        </mxCell>
        <mxCell id="sW9w5M-bmw9onrAfpxuU-23" value="Parent Branch" style="rounded=1;whiteSpace=wrap;html=1;" vertex="1" parent="1">
          <mxGeometry x="320" y="100" width="160" height="60" as="geometry" />
        </mxCell>
        <mxCell id="sW9w5M-bmw9onrAfpxuU-27" value="Feature A" style="rounded=1;whiteSpace=wrap;html=1;" vertex="1" parent="1">
          <mxGeometry x="114" y="319" width="90" height="60" as="geometry" />
        </mxCell>
        <mxCell id="sW9w5M-bmw9onrAfpxuU-28" value="Feature D" style="rounded=1;whiteSpace=wrap;html=1;" vertex="1" parent="1">
          <mxGeometry x="570" y="319" width="120" height="60" as="geometry" />
        </mxCell>
        <mxCell id="sW9w5M-bmw9onrAfpxuU-29" value="Feature C" style="rounded=1;whiteSpace=wrap;html=1;" vertex="1" parent="1">
          <mxGeometry x="425" y="319" width="110" height="60" as="geometry" />
        </mxCell>
        <mxCell id="sW9w5M-bmw9onrAfpxuU-30" value="Feature B" style="rounded=1;whiteSpace=wrap;html=1;" vertex="1" parent="1">
          <mxGeometry x="250" y="319" width="110" height="60" as="geometry" />
        </mxCell>
        <mxCell id="sW9w5M-bmw9onrAfpxuU-31" value="" style="endArrow=none;html=1;rounded=0;" edge="1" parent="1">
          <mxGeometry width="50" height="50" relative="1" as="geometry">
            <mxPoint x="160" y="279" as="sourcePoint" />
            <mxPoint x="640" y="279" as="targetPoint" />
          </mxGeometry>
        </mxCell>
        <mxCell id="sW9w5M-bmw9onrAfpxuU-32" value="" style="endArrow=classic;html=1;rounded=0;" edge="1" parent="1">
          <mxGeometry width="50" height="50" relative="1" as="geometry">
            <mxPoint x="161" y="279" as="sourcePoint" />
            <mxPoint x="161" y="316" as="targetPoint" />
          </mxGeometry>
        </mxCell>
        <mxCell id="sW9w5M-bmw9onrAfpxuU-34" value="" style="endArrow=classic;html=1;rounded=0;" edge="1" parent="1">
          <mxGeometry width="50" height="50" relative="1" as="geometry">
            <mxPoint x="304" y="279" as="sourcePoint" />
            <mxPoint x="304" y="319" as="targetPoint" />
          </mxGeometry>
        </mxCell>
        <mxCell id="sW9w5M-bmw9onrAfpxuU-35" value="" style="endArrow=classic;html=1;rounded=0;" edge="1" parent="1">
          <mxGeometry width="50" height="50" relative="1" as="geometry">
            <mxPoint x="480" y="279" as="sourcePoint" />
            <mxPoint x="479" y="319" as="targetPoint" />
          </mxGeometry>
        </mxCell>
        <mxCell id="sW9w5M-bmw9onrAfpxuU-36" value="" style="endArrow=classic;html=1;rounded=0;" edge="1" parent="1">
          <mxGeometry width="50" height="50" relative="1" as="geometry">
            <mxPoint x="640" y="279" as="sourcePoint" />
            <mxPoint x="640" y="318" as="targetPoint" />
          </mxGeometry>
        </mxCell>
        <mxCell id="sW9w5M-bmw9onrAfpxuU-38" value="" style="endArrow=classic;html=1;rounded=0;strokeWidth=2;" edge="1" parent="1">
          <mxGeometry width="50" height="50" relative="1" as="geometry">
            <mxPoint x="398" y="160" as="sourcePoint" />
            <mxPoint x="397" y="280" as="targetPoint" />
          </mxGeometry>
        </mxCell>
        <mxCell id="sW9w5M-bmw9onrAfpxuU-40" value="&lt;font style=&quot;color: rgb(130, 179, 102);&quot;&gt;&lt;b&gt;PROD RELEASE A&lt;/b&gt;&lt;/font&gt;" style="ellipse;whiteSpace=wrap;html=1;fillColor=#d5e8d4;strokeColor=#82b366;strokeWidth=2;" vertex="1" parent="1">
          <mxGeometry x="80" y="530" width="160" height="49" as="geometry" />
        </mxCell>
        <mxCell id="sW9w5M-bmw9onrAfpxuU-48" value="" style="endArrow=classic;html=1;rounded=0;exitX=0.5;exitY=1;exitDx=0;exitDy=0;fillColor=#d5e8d4;strokeColor=#82B366;strokeWidth=2;" edge="1" parent="1" source="sW9w5M-bmw9onrAfpxuU-40">
          <mxGeometry width="50" height="50" relative="1" as="geometry">
            <mxPoint x="400" y="460" as="sourcePoint" />
            <mxPoint x="320" y="120" as="targetPoint" />
            <Array as="points">
              <mxPoint x="160" y="640" />
              <mxPoint x="40" y="640" />
              <mxPoint x="40" y="120" />
            </Array>
          </mxGeometry>
        </mxCell>
        <mxCell id="sW9w5M-bmw9onrAfpxuU-50" value="" style="endArrow=none;html=1;rounded=0;fillColor=#d5e8d4;strokeColor=#82b366;strokeWidth=2;" edge="1" parent="1">
          <mxGeometry width="50" height="50" relative="1" as="geometry">
            <mxPoint x="280" y="240" as="sourcePoint" />
            <mxPoint x="600" y="240" as="targetPoint" />
          </mxGeometry>
        </mxCell>
        <mxCell id="sW9w5M-bmw9onrAfpxuU-51" value="" style="endArrow=classic;html=1;rounded=0;entryX=0.636;entryY=0.033;entryDx=0;entryDy=0;entryPerimeter=0;strokeWidth=2;fillColor=#d5e8d4;strokeColor=#82b366;" edge="1" parent="1">
          <mxGeometry width="50" height="50" relative="1" as="geometry">
            <mxPoint x="280.04" y="238.02" as="sourcePoint" />
            <mxPoint x="280.00000000000006" y="319" as="targetPoint" />
          </mxGeometry>
        </mxCell>
        <mxCell id="sW9w5M-bmw9onrAfpxuU-52" value="" style="endArrow=classic;html=1;rounded=0;entryX=0.318;entryY=-0.033;entryDx=0;entryDy=0;entryPerimeter=0;strokeWidth=2;fillColor=#d5e8d4;strokeColor=#82b366;" edge="1" parent="1" target="sW9w5M-bmw9onrAfpxuU-29">
          <mxGeometry width="50" height="50" relative="1" as="geometry">
            <mxPoint x="460" y="240" as="sourcePoint" />
            <mxPoint x="330" y="331" as="targetPoint" />
          </mxGeometry>
        </mxCell>
        <mxCell id="sW9w5M-bmw9onrAfpxuU-53" value="" style="endArrow=classic;html=1;rounded=0;entryX=0.318;entryY=-0.033;entryDx=0;entryDy=0;entryPerimeter=0;strokeWidth=2;fillColor=#d5e8d4;strokeColor=#82b366;" edge="1" parent="1">
          <mxGeometry width="50" height="50" relative="1" as="geometry">
            <mxPoint x="600" y="240" as="sourcePoint" />
            <mxPoint x="600" y="317" as="targetPoint" />
          </mxGeometry>
        </mxCell>
        <mxCell id="sW9w5M-bmw9onrAfpxuU-57" value="A" style="text;html=1;align=center;verticalAlign=middle;resizable=0;points=[];autosize=1;strokeColor=none;fillColor=none;fontColor=#82B366;fontStyle=1" vertex="1" parent="1">
          <mxGeometry x="412" y="198" width="30" height="30" as="geometry" />
        </mxCell>
        <mxCell id="sW9w5M-bmw9onrAfpxuU-58" value="&lt;font style=&quot;color: rgb(130, 179, 102);&quot;&gt;A+B&lt;/font&gt;" style="text;html=1;align=center;verticalAlign=middle;resizable=0;points=[];autosize=1;strokeColor=none;fillColor=none;" vertex="1" parent="1">
          <mxGeometry x="230" y="288" width="50" height="30" as="geometry" />
        </mxCell>
        <mxCell id="sW9w5M-bmw9onrAfpxuU-59" value="&lt;font style=&quot;color: rgb(130, 179, 102);&quot;&gt;A + C&lt;/font&gt;" style="text;html=1;align=center;verticalAlign=middle;resizable=0;points=[];autosize=1;strokeColor=none;fillColor=none;" vertex="1" parent="1">
          <mxGeometry x="415" y="289" width="50" height="30" as="geometry" />
        </mxCell>
        <mxCell id="sW9w5M-bmw9onrAfpxuU-60" value="&lt;font style=&quot;color: rgb(130, 179, 102);&quot;&gt;A + D&lt;/font&gt;" style="text;html=1;align=center;verticalAlign=middle;resizable=0;points=[];autosize=1;strokeColor=none;fillColor=none;" vertex="1" parent="1">
          <mxGeometry x="545" y="288" width="50" height="30" as="geometry" />
        </mxCell>
        <mxCell id="sW9w5M-bmw9onrAfpxuU-61" value="&lt;font style=&quot;color: rgb(102, 178, 255);&quot;&gt;&lt;b&gt;PROD RELEASE A+C&lt;/b&gt;&lt;/font&gt;" style="ellipse;whiteSpace=wrap;html=1;fillColor=#dae8fc;strokeColor=#6c8ebf;" vertex="1" parent="1">
          <mxGeometry x="410" y="530" width="160" height="49" as="geometry" />
        </mxCell>
        <mxCell id="sW9w5M-bmw9onrAfpxuU-62" value="" style="endArrow=classic;html=1;rounded=0;entryX=0.5;entryY=0;entryDx=0;entryDy=0;fontColor=#82B366;strokeWidth=2;fillColor=#d5e8d4;strokeColor=#82b366;" edge="1" parent="1" target="sW9w5M-bmw9onrAfpxuU-40">
          <mxGeometry width="50" height="50" relative="1" as="geometry">
            <mxPoint x="160" y="380" as="sourcePoint" />
            <mxPoint x="450" y="370" as="targetPoint" />
          </mxGeometry>
        </mxCell>
        <mxCell id="sW9w5M-bmw9onrAfpxuU-63" value="" style="endArrow=classic;html=1;rounded=0;entryX=0.431;entryY=0.041;entryDx=0;entryDy=0;entryPerimeter=0;strokeWidth=2;fillColor=#dae8fc;strokeColor=#6c8ebf;" edge="1" parent="1" target="sW9w5M-bmw9onrAfpxuU-61">
          <mxGeometry width="50" height="50" relative="1" as="geometry">
            <mxPoint x="480" y="380" as="sourcePoint" />
            <mxPoint x="450" y="370" as="targetPoint" />
          </mxGeometry>
        </mxCell>
        <mxCell id="sW9w5M-bmw9onrAfpxuU-64" value="" style="endArrow=classic;html=1;rounded=0;exitX=0.444;exitY=1;exitDx=0;exitDy=0;exitPerimeter=0;entryX=1.013;entryY=0.367;entryDx=0;entryDy=0;entryPerimeter=0;strokeWidth=3;fillColor=#dae8fc;strokeColor=#6c8ebf;" edge="1" parent="1" source="sW9w5M-bmw9onrAfpxuU-61" target="sW9w5M-bmw9onrAfpxuU-23">
          <mxGeometry width="50" height="50" relative="1" as="geometry">
            <mxPoint x="400" y="420" as="sourcePoint" />
            <mxPoint x="760" y="120" as="targetPoint" />
            <Array as="points">
              <mxPoint x="480" y="680" />
              <mxPoint x="760" y="680" />
              <mxPoint x="760" y="120" />
            </Array>
          </mxGeometry>
        </mxCell>
        <mxCell id="sW9w5M-bmw9onrAfpxuU-66" value="" style="endArrow=none;html=1;rounded=0;strokeWidth=3;fillColor=#dae8fc;strokeColor=#6c8ebf;" edge="1" parent="1">
          <mxGeometry width="50" height="50" relative="1" as="geometry">
            <mxPoint x="320" y="200" as="sourcePoint" />
            <mxPoint x="660" y="200" as="targetPoint" />
          </mxGeometry>
        </mxCell>
        <mxCell id="sW9w5M-bmw9onrAfpxuU-67" value="" style="endArrow=classic;html=1;rounded=0;entryX=0.636;entryY=-0.033;entryDx=0;entryDy=0;entryPerimeter=0;strokeWidth=3;fillColor=#dae8fc;strokeColor=#6c8ebf;" edge="1" parent="1" target="sW9w5M-bmw9onrAfpxuU-30">
          <mxGeometry width="50" height="50" relative="1" as="geometry">
            <mxPoint x="320" y="200" as="sourcePoint" />
            <mxPoint x="450" y="370" as="targetPoint" />
          </mxGeometry>
        </mxCell>
        <mxCell id="sW9w5M-bmw9onrAfpxuU-68" value="" style="endArrow=classic;html=1;rounded=0;entryX=0.636;entryY=-0.033;entryDx=0;entryDy=0;entryPerimeter=0;strokeWidth=3;fillColor=#dae8fc;strokeColor=#6c8ebf;" edge="1" parent="1">
          <mxGeometry width="50" height="50" relative="1" as="geometry">
            <mxPoint x="659" y="201" as="sourcePoint" />
            <mxPoint x="659" y="318" as="targetPoint" />
          </mxGeometry>
        </mxCell>
        <mxCell id="sW9w5M-bmw9onrAfpxuU-69" value="&lt;font style=&quot;color: rgb(102, 178, 255);&quot;&gt;&lt;b&gt;B+A+C&lt;/b&gt;&lt;/font&gt;" style="text;html=1;align=center;verticalAlign=middle;resizable=0;points=[];autosize=1;strokeColor=none;fillColor=none;" vertex="1" parent="1">
          <mxGeometry x="320" y="280" width="60" height="30" as="geometry" />
        </mxCell>
        <mxCell id="sW9w5M-bmw9onrAfpxuU-70" value="&lt;b&gt;&lt;font style=&quot;color: rgb(102, 178, 255);&quot;&gt;D+A+C&lt;/font&gt;&lt;/b&gt;" style="text;html=1;align=center;verticalAlign=middle;resizable=0;points=[];autosize=1;strokeColor=none;fillColor=none;" vertex="1" parent="1">
          <mxGeometry x="660" y="280" width="60" height="30" as="geometry" />
        </mxCell>
        <mxCell id="sW9w5M-bmw9onrAfpxuU-72" value="Release Feature A to Production" style="text;html=1;align=center;verticalAlign=middle;resizable=0;points=[];autosize=1;strokeColor=none;fillColor=none;" vertex="1" parent="1">
          <mxGeometry x="155" y="500" width="200" height="30" as="geometry" />
        </mxCell>
        <mxCell id="sW9w5M-bmw9onrAfpxuU-73" value="Merge Released Feature A into Parent" style="text;html=1;align=center;verticalAlign=middle;resizable=0;points=[];autosize=1;strokeColor=none;fillColor=none;" vertex="1" parent="1">
          <mxGeometry x="50" y="113" width="230" height="30" as="geometry" />
        </mxCell>
        <mxCell id="sW9w5M-bmw9onrAfpxuU-75" value="Release Feature C on top of A to Production" style="text;html=1;align=center;verticalAlign=middle;resizable=0;points=[];autosize=1;strokeColor=none;fillColor=none;" vertex="1" parent="1">
          <mxGeometry x="480" y="500" width="260" height="30" as="geometry" />
        </mxCell>
        <mxCell id="sW9w5M-bmw9onrAfpxuU-76" value="" style="endArrow=classic;html=1;rounded=0;exitX=0.25;exitY=1;exitDx=0;exitDy=0;strokeWidth=3;fillColor=#dae8fc;strokeColor=#6c8ebf;" edge="1" parent="1" source="sW9w5M-bmw9onrAfpxuU-23">
          <mxGeometry width="50" height="50" relative="1" as="geometry">
            <mxPoint x="400" y="420" as="sourcePoint" />
            <mxPoint x="360" y="200" as="targetPoint" />
          </mxGeometry>
        </mxCell>
        <mxCell id="sW9w5M-bmw9onrAfpxuU-78" value="&lt;b&gt;&lt;font style=&quot;font-size: 25px; color: rgb(51, 51, 255);&quot;&gt;Current Branching Strategy&lt;/font&gt;&lt;/b&gt;" style="text;html=1;align=center;verticalAlign=middle;resizable=0;points=[];autosize=1;strokeColor=none;fillColor=none;" vertex="1" parent="1">
          <mxGeometry x="225" y="15" width="350" height="40" as="geometry" />
        </mxCell>
      </root>
    </mxGraphModel>
  </diagram>
</mxfile>
